<svg width="12" height="8" viewBox="0 0 12 8" fill="none" xmlns="http://www.w3.org/2000/svg">
<path d="M4.80008 4C4.80008 4.66274 5.33734 5.2 6.00008 5.2C6.66282 5.2 7.20008 4.66274 7.20008 4C7.20008 3.33725 6.66282 2.8 6.00008 2.8C5.33734 2.8 4.80008 3.33725 4.80008 4Z" fill="#989AAA"/>
<path fill-rule="evenodd" clip-rule="evenodd" d="M1.61487 7.3738C2.15294 7.73333 2.90199 7.73333 4.40008 7.73333L7.60008 7.73333C9.09817 7.73333 9.84722 7.73333 10.3853 7.3738C10.6182 7.21815 10.8182 7.01815 10.9739 6.78521C11.3334 6.24714 11.3334 5.49809 11.3334 4C11.3334 2.5019 11.3334 1.75286 10.9739 1.21478C10.8182 0.98184 10.6182 0.781839 10.3853 0.626194C9.84722 0.266663 9.09817 0.266663 7.60008 0.266663H4.40008C2.90199 0.266663 2.15294 0.266663 1.61486 0.626194C1.38193 0.781839 1.18192 0.981841 1.02628 1.21478C0.666748 1.75286 0.666748 2.5019 0.666748 4C0.666748 5.49809 0.666748 6.24714 1.02628 6.78521C1.18192 7.01815 1.38193 7.21815 1.61487 7.3738ZM6.00008 6C4.89551 6 4.00008 5.10457 4.00008 4C4.00008 2.89543 4.89551 2 6.00008 2C7.10465 2 8.00008 2.89543 8.00008 4C8.00008 5.10457 7.10465 6 6.00008 6ZM2.53341 6C2.3125 6 2.13342 5.82091 2.13342 5.6L2.13341 2.4C2.13341 2.17908 2.3125 2 2.53341 2C2.75433 2 2.93341 2.17908 2.93341 2.4L2.93342 5.6C2.93342 5.82091 2.75433 6 2.53341 6ZM9.06675 5.6C9.06675 5.82091 9.24583 6 9.46675 6C9.68766 6 9.86675 5.82091 9.86675 5.6V2.4C9.86675 2.17908 9.68766 2 9.46675 2C9.24583 2 9.06675 2.17908 9.06675 2.4V5.6Z" fill="#989AAA"/>
</svg>
