<svg width="24" height="24" viewBox="0 0 24 24" fill="none" xmlns="http://www.w3.org/2000/svg">
<path d="M9.6 9.6H10.8V10.8H9.6C9.26863 10.8 9 10.5314 9 10.2C9 9.86863 9.26863 9.6 9.6 9.6Z" fill="url(#paint0_linear_30_420)"/>
<path d="M13.2 14.4V13.2H14.4C14.7314 13.2 15 13.4686 15 13.8C15 14.1314 14.7314 14.4 14.4 14.4H13.2Z" fill="url(#paint1_linear_30_420)"/>
<path fill-rule="evenodd" clip-rule="evenodd" d="M12 0C5.37258 0 0 5.37258 0 12C0 18.6274 5.37258 24 12 24C18.6274 24 24 18.6274 24 12C24 5.37258 18.6274 0 12 0ZM10.8 6C10.8 5.33726 11.3373 4.8 12 4.8C12.6627 4.8 13.2 5.33726 13.2 6V7.2H15.6C16.2627 7.2 16.8 7.73726 16.8 8.4C16.8 9.06274 16.2627 9.6 15.6 9.6H13.2V10.8H14.4C16.0569 10.8 17.4 12.1431 17.4 13.8C17.4 15.4569 16.0569 16.8 14.4 16.8H13.2V18C13.2 18.6627 12.6627 19.2 12 19.2C11.3373 19.2 10.8 18.6627 10.8 18V16.8H8.4C7.73726 16.8 7.2 16.2627 7.2 15.6C7.2 14.9373 7.73726 14.4 8.4 14.4H10.8V13.2H9.6C7.94315 13.2 6.6 11.8569 6.6 10.2C6.6 8.54315 7.94315 7.2 9.6 7.2H10.8V6Z" fill="url(#paint2_linear_30_420)"/>
<defs>
<linearGradient id="paint0_linear_30_420" x1="-2.90013e-07" y1="24" x2="28.0619" y2="6.52136" gradientUnits="userSpaceOnUse">
<stop stop-color="#E63232"/>
<stop offset="0.46875" stop-color="#4950F6"/>
<stop offset="1" stop-color="#59BECF"/>
</linearGradient>
<linearGradient id="paint1_linear_30_420" x1="-2.90013e-07" y1="24" x2="28.0619" y2="6.52136" gradientUnits="userSpaceOnUse">
<stop stop-color="#E63232"/>
<stop offset="0.46875" stop-color="#4950F6"/>
<stop offset="1" stop-color="#59BECF"/>
</linearGradient>
<linearGradient id="paint2_linear_30_420" x1="-2.90013e-07" y1="24" x2="28.0619" y2="6.52136" gradientUnits="userSpaceOnUse">
<stop stop-color="#E63232"/>
<stop offset="0.46875" stop-color="#4950F6"/>
<stop offset="1" stop-color="#59BECF"/>
</linearGradient>
</defs>
</svg>
