<svg width="11" height="12" viewBox="0 0 11 12" fill="none" xmlns="http://www.w3.org/2000/svg">
<path fill-rule="evenodd" clip-rule="evenodd" d="M1.11454 1.44774C0.333496 2.22878 0.333496 3.48586 0.333496 6.00002C0.333496 8.51418 0.333496 9.77126 1.11454 10.5523C1.89559 11.3334 3.15267 11.3334 5.66683 11.3334C8.18099 11.3334 9.43807 11.3334 10.2191 10.5523C11.0002 9.77126 11.0002 8.51418 11.0002 6.00002C11.0002 3.48586 11.0002 2.22878 10.2191 1.44774C9.43807 0.666687 8.18099 0.666687 5.66683 0.666687C3.15267 0.666687 1.89559 0.666687 1.11454 1.44774ZM8.3335 6.13335C8.55441 6.13335 8.7335 6.31244 8.7335 6.53335V9.20002C8.7335 9.42093 8.55441 9.60002 8.3335 9.60002C8.11258 9.60002 7.9335 9.42093 7.9335 9.20002V6.53335C7.9335 6.31244 8.11258 6.13335 8.3335 6.13335ZM6.06683 2.80002C6.06683 2.57911 5.88774 2.40002 5.66683 2.40002C5.44592 2.40002 5.26683 2.57911 5.26683 2.80002V9.20002C5.26683 9.42093 5.44592 9.60002 5.66683 9.60002C5.88774 9.60002 6.06683 9.42093 6.06683 9.20002V2.80002ZM3.00016 4.00002C3.22108 4.00002 3.40016 4.17911 3.40016 4.40002V9.20002C3.40016 9.42093 3.22108 9.60002 3.00016 9.60002C2.77925 9.60002 2.60016 9.42093 2.60016 9.20002V4.40002C2.60016 4.17911 2.77925 4.00002 3.00016 4.00002Z" fill="#989AAA"/>
</svg>
