<svg width="12" height="12" viewBox="0 0 12 12" fill="none" xmlns="http://www.w3.org/2000/svg">
<path fill-rule="evenodd" clip-rule="evenodd" d="M8.20013 5.99996C8.20013 5.77904 8.02104 5.59996 7.80013 5.59996L1.9481 5.59996L2.99378 4.70366C3.16151 4.55989 3.18094 4.30737 3.03717 4.13964C2.8934 3.97191 2.64088 3.95249 2.47315 4.09625L0.60648 5.69625C0.517822 5.77225 0.466797 5.88319 0.466797 5.99996C0.466797 6.11673 0.517822 6.22767 0.60648 6.30366L2.47315 7.90366C2.64088 8.04743 2.8934 8.028 3.03717 7.86027C3.18094 7.69254 3.16151 7.44002 2.99378 7.29625L1.9481 6.39996L7.80013 6.39996C8.02104 6.39996 8.20013 6.22087 8.20013 5.99996Z" fill="#F3F3F6"/>
<path d="M4.60013 3.86662C4.60013 4.24113 4.60013 4.42838 4.69 4.56289C4.72892 4.62114 4.77893 4.67115 4.83717 4.71006C4.97169 4.79994 5.15894 4.79994 5.53344 4.79994L7.80013 4.79994C8.46287 4.79994 9.00013 5.33719 9.00013 5.99994C9.00013 6.66268 8.46287 7.19994 7.80013 7.19994L5.53349 7.19993C5.15894 7.19993 4.97167 7.19993 4.83715 7.28983C4.77892 7.32873 4.72893 7.37873 4.69002 7.43695C4.60013 7.57147 4.60013 7.75875 4.60013 8.13329C4.60013 9.64178 4.60013 10.396 5.06876 10.8647C5.53739 11.3333 6.29152 11.3333 7.80001 11.3333L8.33334 11.3333C9.84184 11.3333 10.5961 11.3333 11.0647 10.8647C11.5333 10.396 11.5333 9.64178 11.5333 8.13329L11.5333 3.86662C11.5333 2.35813 11.5333 1.60388 11.0647 1.13525C10.5961 0.666624 9.84184 0.666624 8.33335 0.666624L7.80001 0.666624C6.29152 0.666624 5.53739 0.666624 5.06876 1.13525C4.60013 1.60388 4.60013 2.35813 4.60013 3.86662Z" fill="#F3F3F6"/>
</svg>
