<svg width="11" height="12" viewBox="0 0 11 12" fill="none" xmlns="http://www.w3.org/2000/svg">
<path fill-rule="evenodd" clip-rule="evenodd" d="M1.1143 1.44774C0.333252 2.22878 0.333252 3.48586 0.333252 6.00002C0.333252 8.51418 0.333252 9.77126 1.1143 10.5523C1.89535 11.3334 3.15243 11.3334 5.66658 11.3334C8.18074 11.3334 9.43782 11.3334 10.2189 10.5523C10.9999 9.77126 10.9999 8.51418 10.9999 6.00002C10.9999 3.48586 10.9999 2.22878 10.2189 1.44774C9.43782 0.666687 8.18074 0.666687 5.66658 0.666687C3.15243 0.666687 1.89535 0.666687 1.1143 1.44774ZM8.33325 6.13335C8.55416 6.13335 8.73325 6.31244 8.73325 6.53335V9.20002C8.73325 9.42093 8.55416 9.60002 8.33325 9.60002C8.11234 9.60002 7.93325 9.42093 7.93325 9.20002V6.53335C7.93325 6.31244 8.11234 6.13335 8.33325 6.13335ZM6.06659 2.80002C6.06659 2.57911 5.8875 2.40002 5.66658 2.40002C5.44567 2.40002 5.26658 2.57911 5.26658 2.80002V9.20002C5.26658 9.42093 5.44567 9.60002 5.66658 9.60002C5.8875 9.60002 6.06659 9.42093 6.06659 9.20002V2.80002ZM2.99992 4.00002C3.22083 4.00002 3.39992 4.17911 3.39992 4.40002V9.20002C3.39992 9.42093 3.22083 9.60002 2.99992 9.60002C2.779 9.60002 2.59992 9.42093 2.59992 9.20002V4.40002C2.59992 4.17911 2.779 4.00002 2.99992 4.00002Z" fill="url(#paint0_linear_127_122)"/>
<defs>
<linearGradient id="paint0_linear_127_122" x1="0.333252" y1="11.3334" x2="12.8052" y2="3.56507" gradientUnits="userSpaceOnUse">
<stop stop-color="#E63232"/>
<stop offset="0.46875" stop-color="#4950F6"/>
<stop offset="1" stop-color="#59BECF"/>
</linearGradient>
</defs>
</svg>
